<?xml version="1.0" encoding="iso-8859-1"?>
<!-- Uploaded to: SVG Repo, www.svgrepo.com, Generator: SVG Repo Mixer Tools -->
<!DOCTYPE svg PUBLIC "-//W3C//DTD SVG 1.1//EN" "http://www.w3.org/Graphics/SVG/1.1/DTD/svg11.dtd">
<svg fill="#000000" version="1.1" id="Capa_1" xmlns="http://www.w3.org/2000/svg" xmlns:xlink="http://www.w3.org/1999/xlink" 
	 width="800px" height="800px" viewBox="0 0 46.105 46.105"
	 xml:space="preserve">
<g>
	<path d="M38.221,23.334l-1.354-0.283l1.173-5.615c0.403-1.925-0.831-3.812-2.757-4.213l-0.956-0.196l1.8-8.692l0,0
		c0.246-1.176-3.057-2.868-7.403-3.775c-4.346-0.907-8.048-0.689-8.293,0.488l0,0l-1.822,8.69l-0.946-0.196
		c-0.925-0.193-1.89-0.011-2.68,0.506s-1.344,1.327-1.537,2.251l-1.174,5.616l-1.354-0.283c-0.808-0.167-1.613,0.352-1.784,1.168
		c-0.17,0.815,0.354,1.614,1.167,1.784l1.354,0.283l-1.438,6.887l-1.354-0.283c-0.811-0.169-1.612,0.352-1.784,1.167
		c-0.17,0.815,0.354,1.614,1.168,1.784l1.354,0.282L6.71,44.54c-0.08,0.382,0.018,0.781,0.263,1.085
		c0.246,0.303,0.614,0.48,1.006,0.48h23.022c0.612,0,1.143-0.433,1.269-1.034l1.927-9.229l1.354,0.282
		c0.104,0.021,0.207,0.031,0.311,0.031c0.698,0,1.325-0.488,1.475-1.199c0.169-0.815-0.354-1.614-1.168-1.784l-1.353-0.282
		l1.438-6.888l1.354,0.282c0.104,0.021,0.206,0.032,0.31,0.032c0.697,0,1.325-0.488,1.475-1.199
		C39.56,24.303,39.035,23.504,38.221,23.334z M24.796,8.697l0.623-2.984c0.244-1.172,1.395-1.924,2.565-1.679l0.04,0.008
		c0.562,0.118,1.056,0.454,1.37,0.936c0.314,0.481,0.426,1.067,0.309,1.631l-0.623,2.984c-0.07,0.334-0.398,0.549-0.733,0.479
		L25.276,9.43c-0.16-0.034-0.303-0.13-0.392-0.267C24.794,9.024,24.761,8.857,24.796,8.697z M18.504,35.647l-0.623,2.984
		c-0.069,0.335-0.397,0.549-0.732,0.479l-3.071-0.642c-0.335-0.07-0.55-0.398-0.48-0.733l0.623-2.982
		c0.118-0.563,0.454-1.058,0.938-1.371c0.479-0.315,1.066-0.426,1.63-0.31l0.039,0.009c0.562,0.117,1.057,0.454,1.371,0.935
		C18.511,34.499,18.622,35.085,18.504,35.647z M20.558,25.81l-0.622,2.984c-0.033,0.161-0.131,0.302-0.268,0.392
		c-0.139,0.09-0.306,0.122-0.466,0.088l-3.072-0.642c-0.335-0.069-0.55-0.397-0.479-0.732l0.623-2.983
		c0.244-1.172,1.394-1.923,2.565-1.68l0.038,0.009C20.05,23.488,20.803,24.638,20.558,25.81z M22.614,15.97l-0.623,2.984
		c-0.07,0.334-0.398,0.549-0.732,0.479l-3.071-0.642c-0.334-0.07-0.55-0.398-0.479-0.732l0.623-2.984
		c0.117-0.563,0.454-1.056,0.936-1.371c0.482-0.315,1.067-0.426,1.631-0.308l0.04,0.008c0.562,0.118,1.056,0.454,1.37,0.935
		C22.621,14.821,22.733,15.408,22.614,15.97z M28.343,37.703l-0.623,2.983c-0.069,0.335-0.397,0.549-0.732,0.48l-3.073-0.643
		c-0.16-0.032-0.302-0.129-0.391-0.267c-0.091-0.137-0.122-0.305-0.088-0.465l0.622-2.985c0.245-1.172,1.396-1.924,2.566-1.679
		l0.04,0.008C27.836,35.381,28.588,36.53,28.343,37.703z M30.398,27.864l-0.623,2.984c-0.033,0.161-0.129,0.301-0.268,0.392
		c-0.138,0.09-0.306,0.122-0.466,0.089l-3.072-0.643c-0.335-0.069-0.549-0.397-0.479-0.732l0.623-2.984
		c0.117-0.563,0.453-1.056,0.935-1.371c0.482-0.313,1.068-0.426,1.631-0.308l0.039,0.008C29.89,25.544,30.643,26.691,30.398,27.864z
		 M32.454,18.026l-0.623,2.983c-0.071,0.335-0.399,0.549-0.733,0.479l-3.071-0.642c-0.161-0.033-0.303-0.13-0.393-0.267
		c-0.09-0.138-0.122-0.305-0.088-0.465l0.623-2.984c0.245-1.172,1.396-1.924,2.566-1.679l0.039,0.008
		c0.562,0.117,1.057,0.454,1.372,0.935C32.46,16.876,32.571,17.463,32.454,18.026z"/>
</g>
</svg>