<?xml version="1.0" encoding="iso-8859-1"?>
<!-- Uploaded to: SVG Repo, www.svgrepo.com, Generator: SVG Repo Mixer Tools -->
<svg fill="#000000" height="800px" width="800px" version="1.1" id="Layer_1" xmlns="http://www.w3.org/2000/svg" xmlns:xlink="http://www.w3.org/1999/xlink" 
	 viewBox="0 0 503.607 503.607" xml:space="preserve">
<g>
	<g>
		<g>
			<circle cx="318.951" cy="453.246" r="8.393"/>
			<path d="M366.34,127.891L260.197,38.073V8.393c0-4.633-3.752-8.393-8.393-8.393c-4.642,0-8.393,3.76-8.393,8.393v29.679
				l-106.143,89.818c-2.686,2.275-3.668,5.985-2.459,9.292c1.209,3.307,4.356,5.506,7.881,5.506h8.393v25.18
				c0,4.633,3.752,8.393,8.393,8.393h8.393v25.18h33.574c4.642,0,8.393,3.76,8.393,8.393s-3.752,8.393-8.393,8.393h-33.574v142.689
				h33.574c4.642,0,8.393,3.76,8.393,8.393s-3.752,8.393-8.393,8.393h-33.574v25.18h-8.393c-4.314,0-7.923,3.265-8.351,7.554
				l-8.393,83.934c-0.235,2.367,0.537,4.709,2.132,6.471c1.586,1.754,3.853,2.761,6.22,2.761h201.443
				c2.367,0,4.633-1.007,6.22-2.761c1.595-1.763,2.367-4.104,2.132-6.471l-8.393-83.934c-0.428-4.289-4.037-7.554-8.351-7.554
				h-8.393V302.164h-33.574c-4.642,0-8.393-3.76-8.393-8.393s3.752-8.393,8.393-8.393h33.574V176.262h8.393
				c4.642,0,8.393-3.76,8.393-8.393v-25.18h8.393c3.525,0,6.673-2.199,7.881-5.506C370.008,133.875,369.026,130.166,366.34,127.891z
				 M327.344,419.672h9.191l6.715,67.148H160.357l6.715-67.148h9.191H327.344z M251.803,302.164c13.883,0,25.18,11.298,25.18,25.18
				v41.967c0,4.633-3.752,8.393-8.393,8.393h-33.574c-4.642,0-8.393-3.76-8.393-8.393v-41.967
				C226.623,313.461,237.921,302.164,251.803,302.164z M226.623,268.59v-41.967c0-13.883,11.298-25.18,25.18-25.18
				c13.883,0,25.18,11.298,25.18,25.18v41.967c0,4.633-3.752,8.393-8.393,8.393h-33.574
				C230.375,276.984,226.623,273.223,226.623,268.59z M335.738,159.475h-8.393H176.262h-8.393v-16.787h167.869V159.475z"/>
			<path d="M235.016,461.639h50.361c4.642,0,8.393-3.76,8.393-8.393s-3.752-8.393-8.393-8.393h-50.361
				c-4.642,0-8.393,3.76-8.393,8.393S230.375,461.639,235.016,461.639z"/>
			<path d="M184.656,461.639h16.787c4.642,0,8.393-3.76,8.393-8.393s-3.752-8.393-8.393-8.393h-16.787
				c-4.642,0-8.393,3.76-8.393,8.393S180.014,461.639,184.656,461.639z"/>
			<path d="M260.197,226.623c0-4.625-3.76-8.393-8.393-8.393c-4.633,0-8.393,3.769-8.393,8.393v33.574h16.787V226.623z"/>
			<path d="M260.197,327.344c0-4.625-3.76-8.393-8.393-8.393c-4.633,0-8.393,3.769-8.393,8.393v33.574h16.787V327.344z"/>
		</g>
	</g>
</g>
</svg>