<?xml version="1.0" standalone="no"?>
<!DOCTYPE svg PUBLIC "-//W3C//DTD SVG 20010904//EN"
 "http://www.w3.org/TR/2001/REC-SVG-20010904/DTD/svg10.dtd">
<svg version="1.0" xmlns="http://www.w3.org/2000/svg"
 width="700.000000pt" height="700.000000pt" viewBox="0 0 700.000000 700.000000"
 preserveAspectRatio="xMidYMid meet">
<metadata>
Created by potrace 1.14, written by Peter Selinger 2001-2017
</metadata>
<g transform="translate(0.000000,700.000000) scale(0.100000,-0.100000)"
fill="#000000" stroke="none">
<path d="M2995 6981 c-341 -96 -481 -499 -269 -776 42 -56 78 -90 116 -113 16
-9 28 -20 28 -25 0 -4 -18 -26 -40 -48 -103 -104 -180 -263 -197 -409 -9 -71
-9 -410 0 -475 26 -196 154 -401 317 -506 45 -29 62 -49 42 -49 -4 0 -26 -18
-50 -40 -39 -37 -46 -40 -80 -34 -45 8 -16 2 -302 60 l-235 47 -140 211 c-77
116 -144 215 -148 221 -5 5 -43 62 -85 125 l-76 115 -1 501 0 500 -35 55 c-19
30 -38 59 -43 64 -4 6 -54 79 -110 164 -87 130 -108 156 -140 168 -101 40
-202 -55 -162 -153 7 -17 64 -107 126 -200 l113 -169 1 -501 0 -500 66 -100
c248 -378 472 -706 491 -718 20 -12 52 -21 153 -40 113 -22 430 -87 431 -89 2
-1 -1 -20 -6 -42 -5 -22 -8 -81 -6 -132 l3 -92 -401 -3 -401 -3 -305 -184
-305 -185 -250 -1 c-189 -1 -256 -4 -275 -15 -86 -46 -92 -162 -12 -212 36
-22 45 -23 307 -24 203 -1 278 2 303 12 18 7 164 92 325 189 l293 175 432 0
432 0 37 -36 c21 -19 72 -58 113 -85 l75 -49 0 -69 0 -68 -85 -53 c-47 -30
-121 -77 -165 -105 -44 -29 -197 -127 -340 -217 -304 -193 -640 -407 -706
-450 -71 -46 -69 -39 -143 -453 -3 -16 -8 -41 -11 -55 -3 -14 -21 -110 -40
-215 -20 -104 -37 -197 -40 -205 -2 -8 -7 -37 -11 -65 -3 -27 -8 -52 -9 -55
-2 -3 -13 -59 -25 -125 -23 -128 -27 -146 -35 -185 -3 -14 -8 -41 -11 -60 -3
-19 -9 -53 -14 -75 -5 -22 -12 -56 -15 -75 -5 -32 -73 -393 -80 -430 -2 -8 -4
-24 -4 -34 -1 -11 -87 -106 -196 -216 -186 -188 -195 -199 -195 -236 0 -95 89
-157 173 -121 26 12 420 396 437 427 5 9 25 103 45 210 20 107 43 227 50 265
8 39 16 84 19 100 7 37 99 530 127 677 11 59 22 118 24 130 17 94 106 567 110
583 3 13 57 54 152 113 81 52 223 142 315 200 92 59 202 129 245 156 43 28
116 74 163 104 47 30 101 64 120 77 19 12 57 36 84 53 27 18 52 32 55 32 3 0
6 -75 6 -167 l0 -168 -91 -50 c-116 -64 -173 -106 -255 -192 -120 -124 -203
-274 -252 -456 -21 -78 -22 -102 -22 -462 0 -405 3 -446 42 -570 131 -414 525
-701 958 -699 153 1 286 32 430 100 268 126 483 401 544 698 17 81 19 131 17
476 -3 409 -4 423 -59 575 -80 222 -271 431 -500 548 l-62 32 0 168 c0 97 4
167 9 167 5 0 17 -6 25 -13 13 -11 384 -248 496 -317 119 -73 329 -207 339
-216 6 -6 16 -13 22 -15 5 -2 63 -38 127 -79 72 -46 119 -83 122 -95 2 -11 16
-81 30 -155 13 -74 36 -193 49 -265 14 -71 27 -143 30 -160 3 -16 30 -163 61
-325 30 -162 57 -304 59 -315 2 -11 18 -96 36 -190 17 -93 34 -181 36 -195 3
-14 11 -59 19 -100 8 -41 17 -86 19 -100 20 -105 29 -147 35 -158 4 -8 99
-106 211 -218 225 -226 246 -240 317 -213 69 27 101 105 69 167 -8 15 -93 106
-190 202 -97 96 -178 182 -181 190 -2 8 -7 29 -9 45 -3 17 -24 127 -46 245
-22 118 -43 226 -45 240 -2 14 -16 86 -30 160 -15 74 -30 158 -35 185 -7 39
-62 332 -84 450 -2 11 -7 38 -11 60 -4 22 -9 49 -12 60 -2 11 -10 56 -18 100
-8 44 -17 91 -20 105 -3 14 -14 77 -26 140 -41 223 -33 208 -164 295 -63 41
-119 75 -124 75 -5 0 -11 3 -13 8 -2 6 -102 71 -233 152 -48 30 -652 415 -761
485 l-110 72 1 68 c1 57 4 70 20 79 54 31 134 88 167 120 l37 36 433 0 433 0
292 -176 c162 -96 308 -181 326 -188 24 -9 104 -12 307 -11 306 1 312 2 344
70 20 42 20 68 0 111 -30 64 -49 68 -329 69 l-250 2 -305 184 -305 184 -401 3
-401 3 1 107 c1 59 -2 119 -6 134 -8 28 -7 29 77 44 17 2 37 7 45 9 8 2 31 7
50 10 123 20 389 79 408 91 12 8 143 195 290 416 l267 400 0 502 1 501 114
170 c63 94 120 185 126 204 15 48 6 86 -27 120 -33 35 -84 47 -132 32 -37 -13
-62 -45 -237 -310 l-95 -144 0 -501 -1 -501 -107 -160 c-58 -88 -110 -164
-114 -170 -5 -5 -58 -85 -118 -177 l-110 -166 -185 -37 c-102 -20 -192 -38
-200 -40 -8 -1 -54 -10 -103 -19 l-87 -17 -51 49 -50 48 49 32 c142 92 257
255 304 431 16 63 20 112 22 287 2 235 -8 326 -51 432 -31 80 -95 181 -152
240 -22 24 -41 47 -41 51 0 4 12 14 28 23 15 9 47 36 70 60 195 196 194 505
-1 699 -87 86 -189 135 -306 145 -100 8 -155 -25 -167 -101 -12 -82 36 -133
137 -147 71 -9 123 -34 166 -80 113 -117 75 -317 -74 -392 -41 -21 -145 -39
-203 -36 -72 4 -490 5 -550 1 -70 -4 -169 13 -219 38 -141 72 -178 259 -75
379 44 52 99 81 167 89 67 8 103 26 127 66 33 53 22 115 -29 161 -29 26 -127
29 -206 7z"/>
</g>
</svg>
